<?xml version="1.0" encoding="UTF-8"?>
<svg width="16px" height="16px" viewBox="0 0 16 16" version="1.1" xmlns="http://www.w3.org/2000/svg" xmlns:xlink="http://www.w3.org/1999/xlink">
    <defs>
        <path d="M256.000098,94 C261.945661,94 269.952152,95.5857097 278.729206,97.9913965 L279.903933,98.3169466 L281.087113,98.6518117 L282.278066,98.9955883 C282.67627,99.1116209 283.075657,99.2290716 283.476113,99.3478731 L284.680573,99.7082627 C284.881813,99.7689806 285.083292,99.8300195 285.284996,99.8913708 L286.497802,100.263161 L287.715323,100.642049 L288.936879,101.027629 L290.16179,101.419499 L291.389377,101.817255 L292.618959,102.220495 L293.849857,102.628814 L295.081392,103.04181 L296.312883,103.459079 L297.543652,103.880217 L299.386962,104.518298 L301.224821,105.162817 L303.054937,105.812413 L304.269579,106.247624 L305.47908,106.684084 L307.282205,107.340231 L309.069939,107.996918 L310.839988,108.652781 L312.009063,109.088895 L312.947889,109.441752 L314.392866,109.991271 L315.380677,110.371108 L316.899131,110.961097 L318.461671,111.575368 L320.068297,112.213922 L321.163874,112.653113 L322.279044,113.103097 L323.988538,113.798308 L325.152692,114.275271 L326.935663,115.010952 L329.381535,116.02963 L331.905783,117.091477 L333.850403,117.91619 L335.839108,118.765186 L337.8719,119.638463 L340.650868,120.840604 L342.786527,121.770538 L345.702651,123.048223 L347.190104,123.703253 L349.458021,124.706033 L352.55049,126.080845 L355.721334,127.498824 L358.1509,128.590637 L361.458901,130.08416 L364.845277,131.620851 L368.310028,133.200709 L371.853154,134.823734 L374.561932,136.069332 L376.392277,136.913221 L380.111748,138.633374 L383.919283,140.401202 C393.774784,144.985809 400.167936,154.777582 400.403974,165.649208 C401.6465,222.878495 390.830804,275.993138 367.956885,324.993136 C348.175929,367.367459 314.488608,401.614733 266.894923,427.734958 L265.448433,428.523992 C262.65558,430.038185 259.596609,430.859622 256.51387,430.985467 L256.000098,431 L255.999902,431 L255.48613,430.985467 C252.574655,430.866614 249.684379,430.127309 247.019465,428.769943 L246.551567,428.523992 L245.105077,427.734958 C197.511392,401.614733 163.824071,367.367459 144.043115,324.993136 C121.169196,275.993138 110.3535,222.878495 111.596026,165.649208 C111.828831,154.926508 118.051217,145.25428 127.677652,140.592531 L128.080717,140.401202 L131.888252,138.633374 L135.607723,136.913221 L137.438068,136.069332 L140.146846,134.823734 L143.689972,133.200709 L147.154723,131.620851 L150.541099,130.08416 L153.8491,128.590637 L156.278666,127.498824 L159.44951,126.080845 L162.541979,124.706033 L164.809896,123.703253 L166.297349,123.048223 L169.213473,121.770538 L171.349132,120.840604 L174.1281,119.638463 L176.160892,118.765186 L178.149597,117.91619 L180.094217,117.091477 L182.618465,116.02963 L185.064337,115.010952 L186.847308,114.275271 L188.011462,113.798308 L189.720956,113.103097 L190.836126,112.653113 L191.931703,112.213922 L193.538329,111.575368 L195.100869,110.961097 L196.619323,110.371108 L197.607134,109.991271 L199.052111,109.441752 L199.990937,109.088895 L201.160012,108.652781 L202.930061,107.996918 L204.717795,107.340231 L206.52092,106.684084 L207.730421,106.247624 L208.945063,105.812413 L210.775179,105.162817 L212.613038,104.518298 L214.456348,103.880217 L215.687117,103.459079 L216.918608,103.04181 L218.150143,102.628814 L219.381041,102.220495 L220.610623,101.817255 L221.83821,101.419499 L223.063121,101.027629 L224.284677,100.642049 L225.502198,100.263161 L226.715004,99.8913708 L227.01739,99.7995792 L227.01739,99.7995792 L227.319427,99.7082627 L228.523887,99.3478731 L229.123755,99.1706923 L229.123755,99.1706923 L229.721934,98.9955883 L230.912887,98.6518117 L232.096067,98.3169466 L233.270794,97.9913965 C241.797075,95.6544436 249.596196,94.0912813 255.485445,94.0038655 L256.000098,94 Z M333.886264,198.573295 C330.858098,195.545129 326.001517,195.386471 322.789084,198.210765 L322.789084,198.210765 L258.398081,254.821053 C256.207411,256.747012 252.975822,256.901543 250.611373,255.193405 L250.611373,255.193405 L215.262229,229.65627 C212.280357,227.502051 208.178432,227.828404 205.580258,230.426579 L205.580258,230.426579 L198.355406,237.651431 C195.592438,240.414398 195.421609,244.840136 197.963135,247.814125 L197.963135,247.814125 L235.319074,291.526508 C236.120892,292.464763 236.992785,293.340808 237.927219,294.147077 C248.113109,302.935884 263.485366,301.811758 272.262116,291.63627 L272.262116,291.63627 L281.774995,280.606628 L339.771681,215.245675 C342.620127,212.035507 342.47197,207.159002 339.433685,204.120717 L339.433685,204.120717 Z" id="path-1"></path>
    </defs>
    <g id="App-Icon" stroke="none" stroke-width="1" fill="none" fill-rule="evenodd">
        <mask id="mask-2" fill="white">
            <use xlink:href="#path-1"></use>
        </mask>
        <use id="Combined-Shape" fill="#000000" xlink:href="#path-1"></use>
    </g>
</svg>