<?xml version="1.0" encoding="UTF-8"?>
<svg width="30px" height="30px" viewBox="0 0 30 30" version="1.1" xmlns="http://www.w3.org/2000/svg" xmlns:xlink="http://www.w3.org/1999/xlink">
    <title>icloud</title>
    <defs>
        <linearGradient x1="0%" y1="66.4874433%" x2="100%" y2="66.4874434%" id="linearGradient-1">
            <stop stop-color="#20C0FF" stop-opacity="0.409278759" offset="0%"></stop>
            <stop stop-color="#009BFF" offset="100%"></stop>
        </linearGradient>
        <linearGradient x1="47.4575433%" y1="102.877206%" x2="100%" y2="33.4881451%" id="linearGradient-2">
            <stop stop-color="#4BCDFF" stop-opacity="0" offset="0%"></stop>
            <stop stop-color="#1A8CF7" offset="100%"></stop>
        </linearGradient>
        <linearGradient x1="86.8928889%" y1="0%" x2="32.9451735%" y2="91.7243014%" id="linearGradient-3">
            <stop stop-color="#004FFF" offset="0%"></stop>
            <stop stop-color="#72BEFA" stop-opacity="0" offset="100%"></stop>
        </linearGradient>
        <linearGradient x1="87.8317646%" y1="106.17064%" x2="33.1501909%" y2="97.617251%" id="linearGradient-4">
            <stop stop-color="#3B84EE" offset="0%"></stop>
            <stop stop-color="#3F9BF2" stop-opacity="0.608382602" offset="57.5151057%"></stop>
            <stop stop-color="#44A0F9" stop-opacity="0" offset="100%"></stop>
        </linearGradient>
        <linearGradient x1="23.1549876%" y1="64.2825971%" x2="4.39422515%" y2="31.7297854%" id="linearGradient-5">
            <stop stop-color="#8ADBFF" stop-opacity="0" offset="0%"></stop>
            <stop stop-color="#66C5F3" offset="100%"></stop>
        </linearGradient>
        <radialGradient cx="44.413682%" cy="30.3098%" fx="44.413682%" fy="30.3098%" r="63.6834111%" gradientTransform="translate(0.444137,0.303098),scale(0.951759,1.000000),rotate(115.809645),scale(1.000000,0.706718),translate(-0.444137,-0.303098)" id="radialGradient-6">
            <stop stop-color="#A5EEFB" stop-opacity="0.15" offset="0%"></stop>
            <stop stop-color="#3A98F6" stop-opacity="0" offset="100%"></stop>
        </radialGradient>
        <radialGradient cx="29.2017805%" cy="24.9998245%" fx="29.2017805%" fy="24.9998245%" r="16.9023072%" gradientTransform="translate(0.292018,0.249998),scale(0.723584,1.000000),rotate(-56.135339),scale(1.000000,1.814650),translate(-0.292018,-0.249998)" id="radialGradient-7">
            <stop stop-color="#ACE8FF" stop-opacity="0.15" offset="0%"></stop>
            <stop stop-color="#59C2F8" stop-opacity="0" offset="100%"></stop>
        </radialGradient>
        <radialGradient cx="48.8857865%" cy="51.121376%" fx="48.8857865%" fy="51.121376%" r="38.4448291%" gradientTransform="translate(0.488858,0.511214),scale(0.951759,1.000000),rotate(90.000000),translate(-0.488858,-0.511214)" id="radialGradient-8">
            <stop stop-color="#B3E3FA" stop-opacity="0.2" offset="0%"></stop>
            <stop stop-color="#D8D8D8" stop-opacity="0" offset="100%"></stop>
        </radialGradient>
        <linearGradient x1="47.0029788%" y1="0%" x2="61.450676%" y2="52.6768526%" id="linearGradient-9">
            <stop stop-color="#14AFF8" offset="0%"></stop>
            <stop stop-color="#4FC0FB" stop-opacity="0" offset="100%"></stop>
        </linearGradient>
        <linearGradient x1="66.0050514%" y1="84.4681844%" x2="37.6832175%" y2="0%" id="linearGradient-10">
            <stop stop-color="#89D8FA" stop-opacity="0" offset="0%"></stop>
            <stop stop-color="#06ADFF" stop-opacity="0.5" offset="100%"></stop>
        </linearGradient>
        <linearGradient x1="0%" y1="66.4874433%" x2="100%" y2="66.4874434%" id="linearGradient-11">
            <stop stop-color="#4BCDFF" stop-opacity="0.409278759" offset="0%"></stop>
            <stop stop-color="#38BAFC" offset="100%"></stop>
        </linearGradient>
        <path d="M0,10.2322738 C0,8.26126565 1.2566496,6.56960477 3.04899903,5.84346185 C3.32075395,4.17467122 4.83681011,2.89731051 6.66633163,2.89731051 C7.21290057,2.89731051 7.73149231,3.0113167 8.19728719,3.21570675 C9.37165158,1.29281364 11.5595989,0 14.0648037,0 C17.693194,0 20.656076,2.7119235 20.837894,6.1222705 C22.9487617,6.57011725 24.5267057,8.36334134 24.5267057,10.507335 C24.5267057,12.9885653 22.4133199,15 19.8063263,15 C19.7934697,15 5.00938215,15 5.00938215,15 C2.24277678,15 0,12.8654163 0,10.2322738 Z" id="path-12"></path>
        <radialGradient cx="56.8236589%" cy="50%" fx="56.8236589%" fy="50%" r="42.5661217%" gradientTransform="translate(0.568237,0.500000),scale(0.951759,1.000000),rotate(90.000000),scale(1.000000,1.056137),translate(-0.568237,-0.500000)" id="radialGradient-14">
            <stop stop-color="#23B2F8" stop-opacity="0.651777627" offset="0%"></stop>
            <stop stop-color="#2DB6FA" stop-opacity="0.423774497" offset="62.7432297%"></stop>
            <stop stop-color="#40BFFE" stop-opacity="0" offset="100%"></stop>
        </radialGradient>
    </defs>
    <g id="Export" stroke="none" stroke-width="1" fill="none" fill-rule="evenodd">
        <g id="icloud">
            <rect id="Rectangle" fill="#787878" opacity="0.01" x="0" y="0" width="30" height="30"></rect>
            <g id="Icon">
                <rect id="Path" fill="#FFFFFF" x="0" y="0" width="30" height="30"></rect>
                <g id="Background" transform="translate(2.500000, 7.000000)">
                    <path d="M5.00938215,15 C2.24277678,15 0,12.8654163 0,10.2322738 C0,8.26126565 1.2566496,6.56960477 3.04899903,5.84346185 C3.32075395,4.17467122 4.83681011,2.89731051 6.66633163,2.89731051 C7.21290057,2.89731051 7.73149231,3.0113167 8.19728719,3.21570675 C9.37165158,1.29281364 11.5595989,0 14.0648037,0 C17.693194,0 20.656076,2.7119235 20.837894,6.1222705 C22.9487617,6.57011725 24.5267057,8.36334134 24.5267057,10.507335 C24.5267057,12.9885653 22.4133199,15 19.8063263,15 C19.7934697,15 19.7806251,14.9999511 19.7677926,14.9998534 L5.00938215,15 L5.00938215,15 Z" id="White-Background" fill="#FFFFFF"></path>
                    <path d="M5.00938215,15 C2.24277678,15 0,12.8654163 0,10.2322738 C0,8.26126565 1.2566496,6.56960477 3.04899903,5.84346185 C3.32075395,4.17467122 4.83681011,2.89731051 6.66633163,2.89731051 C7.21290057,2.89731051 7.73149231,3.0113167 8.19728719,3.21570675 C9.37165158,1.29281364 11.5595989,0 14.0648037,0 C17.693194,0 20.656076,2.7119235 20.837894,6.1222705 C22.9487617,6.57011725 24.5267057,8.36334134 24.5267057,10.507335 C24.5267057,12.9885653 22.4133199,15 19.8063263,15 C19.7934697,15 19.7806251,14.9999511 19.7677926,14.9998534 L5.00938215,15 L5.00938215,15 Z" id="Blue-Background" fill="url(#linearGradient-1)"></path>
                </g>
                <path d="M16.5648037,19.9095355 C20.3103618,19.9095355 23.3467365,17.0196375 23.3467365,13.4547677 C23.3467365,9.88989795 20.3103618,7 16.5648037,7 C12.8192457,7 9.78287097,9.88989795 9.78287097,13.4547677 C9.78287097,17.0196375 12.8192457,19.9095355 16.5648037,19.9095355 Z" id="Big-Oval" fill="url(#linearGradient-2)"></path>
                <path d="M18.1978854,19.721166 C21.1545893,19.0254855 23.3467365,16.4837786 23.3467365,13.4547677 C23.3467365,13.3432522 23.3437652,13.2323972 23.337894,13.1222705 C23.0058677,13.051827 22.6606562,13.0146699 22.3063263,13.0146699 C19.6993328,13.0146699 17.585947,15.0261046 17.585947,17.507335 C17.585947,18.3122642 17.8083599,19.067752 18.1978854,19.721166 L18.1978854,19.721166 Z" id="Overlay-2" fill="url(#linearGradient-3)" opacity="0.120685634"></path>
                <path d="M22.3063263,22 C24.9133199,22 27.0267057,19.9885653 27.0267057,17.507335 C27.0267057,15.0261046 24.9133199,13.0146699 22.3063263,13.0146699 C19.6993328,13.0146699 17.585947,15.0261046 17.585947,17.507335 C17.585947,19.9885653 19.6993328,22 22.3063263,22 Z" id="Oval-Right" fill="url(#linearGradient-4)"></path>
                <path d="M12.1409609,15.4125598 C11.3896085,13.6821619 9.59889707,12.4645477 7.50938215,12.4645477 C6.81368708,12.4645477 6.15111524,12.5995237 5.54899903,12.8434619 C5.52044584,13.0188011 5.50562929,13.1984628 5.50562929,13.3814181 C5.50562929,15.3056376 7.14458155,16.8655257 9.16633163,16.8655257 C10.3917396,16.8655257 11.4765182,16.2924659 12.1409609,15.4125598 L12.1409609,15.4125598 Z" id="Overlay-1" fill="url(#linearGradient-5)"></path>
                <g id="White-Shade" transform="translate(5.505629, 7.000000)">
                    <path d="M16.800697,15 C19.4076906,15 21.5210764,12.9885653 21.5210764,10.507335 C21.5210764,8.02610458 19.4076906,6.01466993 16.800697,6.01466993 C14.1937035,6.01466993 12.0803177,8.02610458 12.0803177,10.507335 C12.0803177,12.9885653 14.1937035,15 16.800697,15 L16.800697,15 L16.800697,15 L16.800697,15 L16.800697,15 L16.800697,15 Z M12.6922561,12.721166 C15.6489601,12.0254855 17.8411072,9.48377863 17.8411072,6.45476773 C17.8411072,6.34325222 17.8381359,6.23239721 17.8322647,6.1222705 C17.5002384,6.05182701 17.1550269,6.01466993 16.800697,6.01466993 C14.1937035,6.01466993 12.0803177,8.02610458 12.0803177,10.507335 C12.0803177,11.3122642 12.3027306,12.067752 12.6922561,12.721166 L12.6922561,12.721166 L12.6922561,12.721166 L12.6922561,12.721166 L12.6922561,12.721166 L12.6922561,12.721166 L12.6922561,12.721166 Z" fill="url(#radialGradient-6)"></path>
                    <path d="M11.0591744,0 C14.8047325,0 17.8411072,2.88989795 17.8411072,6.45476773 C17.8411072,10.0196375 14.8047325,12.9095355 11.0591744,12.9095355 C8.50346712,12.9095355 6.27793747,11.5640727 5.12187722,9.57677504 C6.4169046,9.03929667 7.32140468,7.81089044 7.32140468,6.38141809 C7.32140468,4.97793098 6.44949008,3.76826639 5.1930822,3.21633208 C6.36507306,1.2933746 8.55342615,0 11.0591744,0 Z M3.66070234,2.89731051 C4.20782844,2.89731051 4.72692027,3.01154925 5.1930822,3.21633208 C4.60992606,4.16872091 4.27724168,5.27476723 4.27724168,6.45476773 C4.27724168,7.58721925 4.58365473,8.65155659 5.12187722,9.57677504 C4.67504372,9.7624038 4.18052612,9.86552567 3.66070234,9.86552567 C1.63895226,9.86552567 0,8.30563758 0,6.38141809 C0,4.45719861 1.63895226,2.89731051 3.66070234,2.89731051 Z" fill="url(#radialGradient-7)"></path>
                    <ellipse fill="url(#radialGradient-8)" cx="4.54697764" cy="7.13325183" rx="3.64143548" ry="3.46577017"></ellipse>
                </g>
                <path d="M9.78287097,13.4547677 C9.78287097,14.5872628 10.0893076,15.6516384 10.6275686,16.5768817 C11.9220845,16.0399069 12.827034,14.8112455 12.827034,13.3814181 C12.827034,11.9774007 11.9544604,10.7673523 10.6972872,10.2157067 C10.1158472,11.167751 9.78287097,12.2742498 9.78287097,13.4547677 Z" id="Overlay-3" fill="url(#linearGradient-9)"></path>
                <path d="M12.3387463,18.5034484 C12.456081,18.098754 12.5187643,17.672481 12.5187643,17.2322738 C12.5187643,15.3847289 11.414616,13.7826308 9.8000985,12.9911144 C9.78867836,13.1442511 9.78287097,13.2988639 9.78287097,13.4547677 C9.78287097,15.4987093 10.781042,17.3207621 12.3387459,18.5034481 L12.3387463,18.5034484 Z" id="Overlay-4" fill="url(#linearGradient-10)"></path>
                <g id="Blue-Shade" transform="translate(2.500000, 7.000000)">
                    <mask id="mask-13" fill="white">
                        <use xlink:href="#path-12"></use>
                    </mask>
                    <use id="Mask" fill="url(#linearGradient-11)" opacity="0" xlink:href="#path-12"></use>
                    <path d="M12.6968571,24.792176 C18.421602,24.792176 23.0624247,20.3752297 23.0624247,14.9266504 C23.0624247,9.47807099 18.421602,5.06112469 12.6968571,5.06112469 C6.97211211,5.06112469 2.33128938,9.47807099 2.33128938,14.9266504 C2.33128938,20.3752297 6.97211211,24.792176 12.6968571,24.792176 Z" id="Oval-163" fill="url(#radialGradient-14)" mask="url(#mask-13)"></path>
                </g>
            </g>
        </g>
    </g>
</svg>